{
 "cells": [
  {
   "cell_type": "code",
   "execution_count": null,
   "id": "20ef004a",
   "metadata": {},
   "outputs": [
    {
     "name": "stderr",
     "output_type": "stream",
     "text": [
      "ffmpeg version 7.1.3-0+deb13u1 Copyright (c) 2000-2025 the FFmpeg developers\n",
      "  built with gcc 14 (Debian 14.2.0-19)\n",
      "  configuration: --prefix=/usr --extra-version=0+deb13u1 --toolchain=hardened --libdir=/usr/lib/x86_64-linux-gnu --incdir=/usr/include/x86_64-linux-gnu --arch=amd64 --enable-gpl --disable-stripping --disable-libmfx --disable-omx --enable-gnutls --enable-libaom --enable-libass --enable-libbs2b --enable-libcdio --enable-libcodec2 --enable-libdav1d --enable-libflite --enable-libfontconfig --enable-libfreetype --enable-libfribidi --enable-libglslang --enable-libgme --enable-libgsm --enable-libharfbuzz --enable-libmp3lame --enable-libmysofa --enable-libopenjpeg --enable-libopenmpt --enable-libopus --enable-librubberband --enable-libshine --enable-libsnappy --enable-libsoxr --enable-libspeex --enable-libtheora --enable-libtwolame --enable-libvidstab --enable-libvorbis --enable-libvpx --enable-libwebp --enable-libx265 --enable-libxml2 --enable-libxvid --enable-libzimg --enable-openal --enable-opencl --enable-opengl --disable-sndio --enable-libvpl --enable-libdc1394 --enable-libdrm --enable-libiec61883 --enable-chromaprint --enable-frei0r --enable-ladspa --enable-libbluray --enable-libcaca --enable-libdvdnav --enable-libdvdread --enable-libjack --enable-libpulse --enable-librabbitmq --enable-librist --enable-libsrt --enable-libssh --enable-libsvtav1 --enable-libx264 --enable-libzmq --enable-libzvbi --enable-lv2 --enable-sdl2 --enable-libplacebo --enable-librav1e --enable-pocketsphinx --enable-librsvg --enable-libjxl --enable-shared\n",
      "  libavutil      59. 39.100 / 59. 39.100\n",
      "  libavcodec     61. 19.101 / 61. 19.101\n",
      "  libavformat    61.  7.100 / 61.  7.100\n",
      "  libavdevice    61.  3.100 / 61.  3.100\n",
      "  libavfilter    10.  4.100 / 10.  4.100\n",
      "  libswscale      8.  3.100 /  8.  3.100\n",
      "  libswresample   5.  3.100 /  5.  3.100\n",
      "  libpostproc    58.  3.100 / 58.  3.100\n",
      "Input #0, mov,mp4,m4a,3gp,3g2,mj2, from '/mnt/c/video/video.mp4':\n",
      "  Metadata:\n",
      "    major_brand     : mp42\n",
      "    minor_version   : 0\n",
      "    compatible_brands: isommp42\n",
      "    creation_time   : 2026-01-24T16:09:03.000000Z\n",
      "    com.android.version: 12\n",
      "    com.android.manufacturer: Xiaomi\n",
      "    com.android.model: M2007J3SG\n",
      "    com.android.capture.fps: 60.000000\n",
      "  Duration: 00:03:38.82, start: 0.000000, bitrate: 38892 kb/s\n",
      "  Stream #0:0[0x1](eng): Video: hevc (Main) (hvc1 / 0x31637668), yuvj420p(pc, bt470bg/bt470bg/smpte170m), 3840x2160, 38523 kb/s, 60.06 fps, 60 tbr, 90k tbn (default)\n",
      "      Metadata:\n",
      "        creation_time   : 2026-01-24T16:09:03.000000Z\n",
      "        handler_name    : VideoHandle\n",
      "        vendor_id       : [0][0][0][0]\n",
      "  Stream #0:1[0x2](eng): Audio: aac (LC) (mp4a / 0x6134706D), 48000 Hz, stereo, fltp, 320 kb/s (default)\n",
      "      Metadata:\n",
      "        creation_time   : 2026-01-24T16:09:03.000000Z\n",
      "        handler_name    : SoundHandle\n",
      "        vendor_id       : [0][0][0][0]\n",
      "Stream mapping:\n",
      "  Stream #0:1 -> #0:0 (aac (native) -> mp3 (libmp3lame))\n",
      "Press [q] to stop, [?] for help\n",
      "Output #0, mp3, to '/mnt/c/video/output_audio.mp3':\n",
      "  Metadata:\n",
      "    major_brand     : mp42\n",
      "    minor_version   : 0\n",
      "    compatible_brands: isommp42\n",
      "    com.android.capture.fps: 60.000000\n",
      "    com.android.version: 12\n",
      "    com.android.manufacturer: Xiaomi\n",
      "    com.android.model: M2007J3SG\n",
      "    TSSE            : Lavf61.7.100\n",
      "  Stream #0:0(eng): Audio: mp3, 48000 Hz, stereo, fltp (default)\n",
      "      Metadata:\n",
      "        creation_time   : 2026-01-24T16:09:03.000000Z\n",
      "        handler_name    : SoundHandle\n",
      "        vendor_id       : [0][0][0][0]\n",
      "        encoder         : Lavc61.19.101 libmp3lame\n",
      "size=    1536KiB time=00:01:07.44 bitrate= 186.6kbits/s speed=67.4x    \r"
     ]
    },
    {
     "name": "stdout",
     "output_type": "stream",
     "text": [
      "Готово! Аудио сохранено в /mnt/c/video/output_audio.mp3\n"
     ]
    },
    {
     "name": "stderr",
     "output_type": "stream",
     "text": [
      "[out#0/mp3 @ 0x635579f38a40] video:0KiB audio:2061KiB subtitle:0KiB other streams:0KiB global headers:0KiB muxing overhead: 0.023215%\n",
      "size=    2062KiB time=00:01:23.81 bitrate= 201.5kbits/s speed=  68x    \n"
     ]
    }
   ],
   "source": [
    "import subprocess\n",
    "\n",
    "def extract_audio_ffmpeg(input_video, output_audio, start_time):\n",
    "    command = [\n",
    "        \"ffmpeg\", \n",
    "        \"-ss\", start_time, \n",
    "        \"-i\", input_video, \n",
    "        \"-vn\", \n",
    "        \"-acodec\", \"libmp3lame\",\n",
    "        \"-q:a\", \"2\",\n",
    "        output_audio\n",
    "    ]\n",
    "    try:\n",
    "        subprocess.run(command, check=True)\n",
    "        print(f\"ready {output_audio}\")\n",
    "    except subprocess.CalledProcessError as e:\n",
    "        print(f\"error fFmpeg: {e}\")\n",
    "\n",
    "extract_audio_ffmpeg(\"/mnt/c/video/video.mp4\", \"/mnt/c/video/output_audio.mp3\", \"00:02:15\")\n"
   ]
  }
 ],
 "metadata": {
  "kernelspec": {
   "display_name": ".venv",
   "language": "python",
   "name": "python3"
  },
  "language_info": {
   "codemirror_mode": {
    "name": "ipython",
    "version": 3
   },
   "file_extension": ".py",
   "mimetype": "text/x-python",
   "name": "python",
   "nbconvert_exporter": "python",
   "pygments_lexer": "ipython3",
   "version": "3.13.5"
  }
 },
 "nbformat": 4,
 "nbformat_minor": 5
}
